<?xml version="1.0" encoding="UTF-8"?>
<!DOCTYPE svg PUBLIC "-//W3C//DTD SVG 1.1//EN" "http://www.w3.org/Graphics/SVG/1.1/DTD/svg11.dtd">
<!-- Creator: CorelDRAW -->
<svg xmlns="http://www.w3.org/2000/svg" xml:space="preserve" width="3.53789in" height="3.53789in" version="1.1" style="shape-rendering:geometricPrecision; text-rendering:geometricPrecision; image-rendering:optimizeQuality; fill-rule:evenodd; clip-rule:evenodd"
viewBox="0 0 90.28 90.28"
 xmlns:xlink="http://www.w3.org/1999/xlink"
 xmlns:xodm="http://www.corel.com/coreldraw/odm/2003">
 <defs>
  <style type="text/css">
   <![CDATA[
    .fil6 {fill:none}
    .fil5 {fill:#002536}
    .fil3 {fill:#088042}
    .fil1 {fill:#0C597D}
    .fil4 {fill:#002536;fill-rule:nonzero}
    .fil2 {fill:url(#id1)}
    .fil0 {fill:url(#id2)}
   ]]>
  </style>
   <clipPath id="id0">
    <path d="M-0 0l90.28 0 0 90.28 -90.28 0 0 -90.28z"/>
   </clipPath>
  <linearGradient id="id1" gradientUnits="userSpaceOnUse" x1="38.7" y1="75.28" x2="64.61" y2="46.72">
   <stop offset="0" style="stop-opacity:1; stop-color:#3E9925"/>
   <stop offset="1" style="stop-opacity:1; stop-color:#2AD191"/>
  </linearGradient>
  <linearGradient id="id2" gradientUnits="userSpaceOnUse" x1="22.08" y1="48.14" x2="52.06" y2="71.19">
   <stop offset="0" style="stop-opacity:1; stop-color:#3C597A"/>
   <stop offset="1" style="stop-opacity:1; stop-color:#088281"/>
  </linearGradient>
 </defs>
 <g id="Layer_x0020_1">
  <metadata id="CorelCorpID_0Corel-Layer"/>
  <g>
  </g>
  <g style="clip-path:url(#id0)">
   <g id="_1949536849392">
    <g>
     <path class="fil0" d="M18.18 40.82l0 0c14.6,-1.22 37.78,8.86 37.78,37.78l0 0c-8.36,0 -16.72,0 -25.08,0 -7.49,0 -12.7,-6.02 -12.7,-12.84l0 -24.94z"/>
     <path class="fil1" d="M31.93 78.53c-1.87,-0.03 -3.52,-0.81 -4.46,-0.83 -5.38,-0.91 -7.23,-9.06 -6.89,-10.64 0.13,-0.62 4.11,8.67 9.78,8.11 0.61,-7.33 5.36,-19.47 12.46,-24.84 0,0 -11.13,12.17 -10.89,28.2z"/>
     <path class="fil2" d="M71.3 42.12l0 0c-14.6,-1.22 -39.29,8.93 -39.29,37.86l1.51 -0.08c8.36,0 16.72,0 25.08,0 7.49,0 12.7,-6.02 12.7,-12.84l0 -24.94z"/>
     <path class="fil3" d="M40.21 75.87c0,0 22.83,4.3 26.72,-0.64 2,-2.53 5.33,-12.05 2.86,-23.74 0,0 0.91,22.28 -9.44,22.99 -10.34,0.71 -20.15,1.39 -20.15,1.39z"/>
     <path class="fil4" d="M77.55 43.43l-0 -7.47 -32.08 -20.87 -32.08 20.87 -0 7.47 -5.66 1 0 -9.71c-0.07,-0.95 0.37,-1.91 1.24,-2.48l34.86 -22.68c0.94,-0.63 2.22,-0.68 3.22,-0.03l34.91 22.71 -0 0.01c0.75,0.49 1.25,1.32 1.25,2.26l0 10.11 -5.66 -1.19z"/>
     <path class="fil5" d="M41.19 25.65l2.53 0 0 5.11 -4.51 0 0 -3.12c0,-1.09 0.89,-1.99 1.99,-1.99zm4.74 0l2.53 0c1.09,0 1.99,0.89 1.99,1.99l0 3.12 -4.51 0 0 -5.11zm4.51 7.32l0 3.12c0,1.09 -0.89,1.99 -1.99,1.99l-2.53 0 0 -5.11 4.51 0zm-6.73 5.11l-2.53 0c-1.09,0 -1.99,-0.89 -1.99,-1.99l0 -3.12 4.51 0 0 5.11z"/>
     <path class="fil5" d="M24.82 52.25c0,0 3.07,1.66 5.86,4.79 1.39,1.56 2.7,3.48 3.53,5.74 0,0 0,0.01 0,0.01 0.01,0.02 0.01,0.04 0.02,0.05 0,0 0.09,-0.25 0.09,-0.25 -0.01,-0.02 -0.01,-0.05 -0.02,-0.07 -0.49,-1.77 -1.61,-4.59 -3.57,-6.46 -1.66,-1.59 -3.17,-2.99 -5.91,-3.82zm11.2 23.49c0.22,0 0.26,-0.12 0.4,-0.48 1.44,-4 3.73,-7.39 6.37,-10.24 2.88,-3.1 6.2,-5.55 9.34,-7.44 3.14,-1.89 6.11,-3.22 8.29,-4.08 2.18,-0.86 3.58,-1.24 3.58,-1.24 -18.86,6.72 -22.29,19.94 -26.12,23.24 -0.23,0.19 0,0.23 0,0.23l0 0 15.27 0 4.52 0 5.14 -0.43c1.58,-0.48 2.95,-1.33 4.04,-2.43 1.85,-1.87 2.93,-4.47 2.93,-7.24l0 -22.3c-6.31,0.08 -14.45,0.91 -20.64,5.79 -0.29,0.23 -4.63,4.14 -4.92,4.38 -6.19,6.17 -11.62,14.35 -12.05,22.24l0.73 0 3.11 0zm34.11 -37.88c0.88,0 1.76,0.04 2.62,0.11l2.51 0.21 0 6.73c1.58,0.28 3.17,0.64 4.78,1.08l3 0.81 -1.18 2.87c-0.91,2.2 -1.88,5.15 -2.93,8.31 -1.46,4.41 -4.12,13.55 -6.78,17.12 -0.91,1.44 -1.91,2.38 -3.01,3.04 -2.53,1.92 -5.7,3.08 -9.31,3.08l-1.13 0 -26.69 0 -1.13 0c-4.43,0 -8.21,-1.74 -10.93,-4.49 -1.02,-1.03 -1.88,-2.19 -2.57,-3.46 -2.79,-4.56 -4.08,-10.32 -5.73,-15.29 -1.05,-3.17 -2.03,-6.11 -2.93,-8.31l-1.18 -2.87 3 -0.81c1.65,-0.45 3.29,-0.81 4.91,-1.1l0 -6.71 2.51 -0.21c0.86,-0.07 1.74,-0.11 2.62,-0.11 7.45,0 16.38,2.53 23.72,8.32 0.36,0.28 0.71,0.57 1.07,0.87 0.35,-0.3 0.7,-0.59 1.05,-0.87 7.34,-5.79 16.27,-8.32 23.72,-8.32zm5.13 12.61l0 1.26c0.14,-0.4 0.28,-0.79 0.42,-1.17 -0.14,-0.03 -0.28,-0.06 -0.42,-0.08zm-59.82 1.61l0 -1.64c-0.18,0.04 -0.36,0.07 -0.54,0.11 0.18,0.5 0.36,1.01 0.54,1.53zm16.64 23.66c0.84,-9.95 4.5,-18.62 9.48,-24.74 -0.21,-0.18 -0.43,-0.35 -0.65,-0.52 -6.19,-4.88 -13.69,-7.06 -20,-7.14l0 22.3c0,2.77 1.08,5.37 2.93,7.24 1.74,1.75 4.17,2.87 7.03,2.87l1.2 0z"/>
     <path class="fil4" d="M20.44 79.88c-6.26,-3.87 -8.82,-12.24 -13.31,-20.66 -1.46,-2.75 -2.47,-4.07 -5.77,-5.91 4.26,0.72 7.72,5.39 9.79,9.11 1.28,4.2 2.56,8.68 4.81,12.36 0.69,1.27 1.56,2.44 2.57,3.46 0.59,0.59 1.23,1.14 1.91,1.63z"/>
     <path class="fil4" d="M69.85 80.41c6.26,-3.87 8.82,-12.24 13.31,-20.66 1.46,-2.75 2.47,-4.07 5.77,-5.91 -4.26,0.72 -7.72,5.39 -9.79,9.11 -1.28,4.2 -2.56,8.68 -4.81,12.36 -0.69,1.27 -1.56,2.44 -2.57,3.46 -0.59,0.59 -1.23,1.14 -1.91,1.63z"/>
     <path class="fil1" d="M14.59 50.61c0,0 3.76,14.8 7.79,20.37 0,0 -4.46,-9.25 -6.93,-20.53l-0.85 0.16z"/>
     <path class="fil3" d="M75.68 50.56c0,0 -3.56,15.23 -7.58,20.79 0,0 4.16,-9.74 6.64,-21.01l0.95 0.21z"/>
    </g>
   </g>
  </g>
  <polygon class="fil6" points="-0,0 90.28,0 90.28,90.28 -0,90.28 "/>
 </g>
</svg>
