<?xml version="1.0" encoding="UTF-8"?>
<!DOCTYPE svg PUBLIC "-//W3C//DTD SVG 1.1//EN" "http://www.w3.org/Graphics/SVG/1.1/DTD/svg11.dtd">
<!-- Creator: CorelDRAW -->
<svg xmlns="http://www.w3.org/2000/svg" xml:space="preserve" width="2.8833in" height="0.317646in" version="1.1" style="shape-rendering:geometricPrecision; text-rendering:geometricPrecision; image-rendering:optimizeQuality; fill-rule:evenodd; clip-rule:evenodd"
viewBox="0 0 70.8 7.8"
 xmlns:xlink="http://www.w3.org/1999/xlink"
 xmlns:xodm="http://www.corel.com/coreldraw/odm/2003">
 <defs>
  <style type="text/css">
   <![CDATA[
    .fil2 {fill:none}
    .fil1 {fill:#002536}
    .fil0 {fill:#002536;fill-rule:nonzero}
   ]]>
  </style>
   <clipPath id="id0">
    <path d="M-0 0l70.8 0 0 7.8 -70.8 0 0 -7.8z"/>
   </clipPath>
 </defs>
 <g id="Layer_x0020_1">
  <metadata id="CorelCorpID_0Corel-Layer"/>
  <g>
  </g>
  <g style="clip-path:url(#id0)">
   <g id="_1950154321408">
    <g>
     <path class="fil0" d="M3.68 6.28c-0.25,-0.16 -0.41,-0.41 -0.65,-0.74l-0.98 -1.47 0.49 -0.74c0.33,-0.33 0.57,-0.65 0.9,-0.98l0 0 -1.39 0c0,0.25 0,0.33 -0.16,0.57l-0.9 1.23 0 -0.65c0,-0.49 0.08,-0.82 0.25,-1.15l-1.23 0c0.08,0.33 0.16,0.65 0.16,1.15l0 1.72c0,0.49 -0.08,0.74 -0.16,1.15l1.23 0c-0.16,-0.41 -0.25,-0.65 -0.25,-1.15l0 -1.06 0.98 1.39c0.25,0.33 0.33,0.57 0.33,0.82l1.39 0 0 -0.08zm4.09 0c-0.25,-0.25 -0.41,-0.49 -0.57,-0.9l-0.82 -1.88c-0.16,-0.49 -0.33,-0.82 -0.41,-1.15l-0.74 0c-0.08,0.33 -0.25,0.74 -0.41,1.15l-0.9 1.88c-0.16,0.49 -0.33,0.74 -0.57,0.9l0 0.08 1.23 0c0,-0.08 0,-0.08 0,-0.16 0,-0.16 0.08,-0.33 0.16,-0.65l0.08 -0.08 1.56 0 0 0.08c0.08,0.33 0.16,0.49 0.16,0.65 0,0.08 0,0.08 0,0.16l1.23 0 0 -0.08zm-2.13 -2.62l0.41 1.15 -0.98 0 0.57 -1.15zm6.47 -0.33c0,-0.25 0,-0.41 0,-0.57 0.08,-0.08 0.16,-0.25 0.25,-0.41l0 0 -0.98 0c-0.08,0.08 -0.16,0.25 -0.33,0.41l-0.98 1.23 -0.9 -1.06c-0.08,-0.16 -0.16,-0.25 -0.16,-0.33 -0.08,-0.08 -0.08,-0.16 -0.16,-0.25l-1.23 0 0 0c0.16,0.16 0.25,0.33 0.41,0.49l0 2.37c0,0.49 -0.08,0.74 -0.16,1.15l1.23 0c-0.16,-0.41 -0.25,-0.65 -0.25,-1.15l0 -1.47 1.23 1.47 1.15 -1.39 0 1.39c0,0.49 0,0.74 -0.16,1.15l1.23 0c-0.16,-0.41 -0.16,-0.65 -0.16,-1.15l0 -1.88zm3.36 0.25c0,-0.65 -0.57,-1.23 -1.56,-1.23l-1.15 0c0.16,0.33 0.16,0.65 0.16,1.15l0 1.72c0,0.49 0,0.74 -0.16,1.15l1.23 0c-0.16,-0.41 -0.16,-0.65 -0.16,-1.15l0 -0.41c0.08,0 0.08,0 0.16,0 0.9,0 1.47,-0.49 1.47,-1.23zm-0.82 0.08c0,0.41 -0.33,0.74 -0.82,0.74l0 -0.98c0,-0.25 0,-0.41 0,-0.49 0.49,0 0.82,0.33 0.82,0.74zm1.39 1.06c0,1.06 0.41,1.64 1.15,1.64 0.41,0 0.74,-0.16 1.15,-0.41 0,0.16 0,0.33 0,0.41l1.06 0c-0.16,-0.41 -0.25,-0.65 -0.25,-1.15l0 -1.72c0,-0.49 0.08,-0.82 0.25,-1.15l-1.23 0c0.08,0.33 0.16,0.65 0.16,1.15l0 1.39c0,0.41 -0.41,0.74 -0.82,0.74 -0.41,0 -0.65,-0.25 -0.65,-0.9l0 -1.23c0,-0.49 0.08,-0.82 0.16,-1.15l-1.23 0c0.16,0.33 0.25,0.65 0.25,1.15l0 1.23zm7.61 -1.06c0,-0.33 0,-0.57 0,-0.74 0.08,-0.16 0.08,-0.33 0.16,-0.57l-1.15 0c0.08,0.25 0.08,0.41 0.16,0.57 0,0.16 0,0.41 0,0.74l0 1.47 -1.47 -2.05c-0.16,-0.25 -0.25,-0.33 -0.33,-0.41 0,-0.08 -0.08,-0.25 -0.08,-0.33l-1.39 0 0 0c0.25,0.25 0.41,0.33 0.57,0.57l0 2.13c0,0.25 0,0.49 0,0.74 0,0.16 -0.08,0.33 -0.16,0.57l1.15 0c0,-0.25 -0.08,-0.41 -0.08,-0.57 -0.08,-0.25 -0.08,-0.49 -0.08,-0.74l0 -1.15 1.39 1.88c0.16,0.25 0.25,0.41 0.33,0.57l1.15 0c-0.16,-0.41 -0.16,-0.74 -0.16,-1.31l0 -1.39zm3.93 -1.23c-0.33,-0.08 -0.65,-0.08 -1.06,-0.08 -1.31,-0.08 -2.29,0.9 -2.29,2.13 0,1.06 0.74,1.88 2.29,1.88 0.49,0 0.98,-0.08 1.47,-0.25 -0.08,-0.16 -0.08,-0.33 -0.08,-0.65l0 -0.41c0,-0.25 0,-0.57 0.08,-0.74l-1.23 0c0.16,0.33 0.25,0.65 0.25,1.06l0 0.25c-0.08,0.08 -0.25,0.08 -0.49,0.08 -0.74,0 -1.31,-0.57 -1.31,-1.39 0,-0.9 0.49,-1.39 1.23,-1.39 0.41,0 0.74,0.08 1.15,0.33l0 0 0 -0.82zm5.81 3.85c-0.16,-0.25 -0.33,-0.49 -0.49,-0.9l-0.82 -1.88c-0.25,-0.49 -0.33,-0.82 -0.41,-1.15l-0.82 0c0,0.33 -0.16,0.74 -0.41,1.15l-0.9 1.88c-0.16,0.49 -0.33,0.74 -0.49,0.9l0 0.08 1.23 0c-0.08,-0.08 -0.08,-0.08 -0.08,-0.16 0,-0.16 0.08,-0.33 0.25,-0.65l0 -0.08 1.56 0 0 0.08c0.16,0.33 0.16,0.49 0.16,0.65 0,0.08 0,0.08 0,0.16l1.23 0 0 -0.08zm-2.13 -2.62l0.49 1.15 -0.98 0 0.49 -1.15zm2.7 1.56c0,0.49 -0.08,0.74 -0.16,1.15l1.23 0c-0.16,-0.41 -0.25,-0.65 -0.25,-1.15l0 -2.21c0.41,0 0.74,0.08 0.98,0.33l0.41 -0.98 -3.19 0 -0.33 0.98 0 0c0.41,-0.16 0.82,-0.33 1.31,-0.33l0 2.21zm5.81 1.06c-0.16,-0.25 -0.33,-0.49 -0.49,-0.9l-0.82 -1.88c-0.25,-0.49 -0.33,-0.82 -0.41,-1.15l-0.82 0c0,0.33 -0.16,0.74 -0.41,1.15l-0.9 1.88c-0.16,0.49 -0.33,0.74 -0.49,0.9l0 0.08 1.23 0c-0.08,-0.08 -0.08,-0.08 -0.08,-0.16 0,-0.16 0.08,-0.33 0.25,-0.65l0 -0.08 1.56 0 0 0.08c0.16,0.33 0.16,0.49 0.16,0.65 0,0.08 0,0.08 0,0.16l1.23 0 0 -0.08zm-2.13 -2.62l0.49 1.15 -0.98 0 0.49 -1.15zm2.21 2.54c0.33,0.16 0.57,0.16 0.9,0.16 0.82,0 1.39,-0.41 1.39,-1.15 0,-0.57 -0.25,-0.74 -0.82,-1.15 -0.41,-0.25 -0.57,-0.49 -0.57,-0.74 0,-0.16 0.16,-0.33 0.41,-0.33 0.25,0 0.49,0.08 0.74,0.33l0 0 0 -0.82c-0.25,-0.16 -0.49,-0.16 -0.74,-0.16 -0.82,0 -1.31,0.49 -1.31,1.15 0,0.49 0.25,0.82 0.74,1.15 0.57,0.33 0.65,0.49 0.65,0.65 0,0.25 -0.16,0.41 -0.49,0.41 -0.08,0 -0.25,0 -0.41,-0.08 -0.08,-0.08 -0.25,-0.25 -0.41,-0.49l-0.08 0 0 1.06z"/>
     <g>
      <path class="fil0" d="M59.51 3.74l0 -0.65 -3.03 -1.96 -2.95 1.96 0 0.65 -0.57 0.16 0 -0.9c0,-0.16 0.08,-0.25 0.16,-0.25l3.19 -2.13c0.08,-0.08 0.25,-0.08 0.33,0l3.27 2.13 0 0c0.08,0 0.08,0.08 0.08,0.16l0 0.98 -0.49 -0.16z"/>
      <path class="fil1" d="M56.07 2.1l0.25 0 0 0.49 -0.41 0 0 -0.33c0,-0.08 0.08,-0.16 0.16,-0.16zm0.49 0l0.25 0c0.08,0 0.16,0.08 0.16,0.16l0 0.33 -0.41 0 0 -0.49zm0.41 0.74l0 0.25c0,0.08 -0.08,0.16 -0.16,0.16l-0.25 0 0 -0.41 0.41 0zm-0.65 0.41l-0.25 0c-0.08,0 -0.16,-0.08 -0.16,-0.16l0 -0.25 0.41 0 0 0.41z"/>
      <path class="fil1" d="M54.6 4.64c0,0 0.25,0.08 0.49,0.41 0.16,0.16 0.25,0.33 0.33,0.57 0,0 0,0 0,0 0,0 0,0 0,0 0,0 0.08,-0.08 0.08,-0.08 0,0 0,0 0,0 -0.08,-0.16 -0.16,-0.41 -0.41,-0.57 -0.08,-0.16 -0.25,-0.33 -0.49,-0.33zm-0.98 -0.16c0,0 0.33,1.39 0.74,1.88l0 0c0,0.08 0.08,0.08 0.16,0.16 0.16,0.16 0.33,0.25 0.65,0.25l0.08 0c0.08,-0.9 0.41,-1.72 0.9,-2.29 0,0 -0.08,0 -0.08,0 -0.57,-0.49 -1.31,-0.74 -1.88,-0.74l0 2.13c0,0.08 0,0.16 0.08,0.25 -0.16,-0.25 -0.41,-0.9 -0.57,-1.64 0,0 -0.08,0 -0.08,0zm0.08 -0.57l0 -0.57 0.25 -0.08c0.08,0 0.16,0 0.25,0 0.65,0 1.56,0.25 2.21,0.82 0,0 0.08,0 0.08,0.08 0.08,-0.08 0.08,-0.08 0.08,-0.08 0.74,-0.57 1.56,-0.82 2.21,-0.82 0.08,0 0.16,0 0.25,0l0.25 0.08 0 0.57c0.16,0.08 0.33,0.08 0.49,0.08l0.25 0.08 -0.08 0.33c-0.08,0.16 -0.16,0.41 -0.33,0.74 -0.08,0.41 -0.33,1.31 -0.57,1.64 -0.08,0.08 -0.16,0.16 -0.33,0.25 -0.25,0.16 -0.49,0.33 -0.82,0.33l-0.16 0 -2.46 0 -0.08 0c-0.41,0 -0.82,-0.16 -1.06,-0.49 -0.08,-0.08 -0.16,-0.16 -0.25,-0.25 -0.25,-0.49 -0.33,-0.98 -0.49,-1.47 -0.08,-0.33 -0.25,-0.57 -0.33,-0.74l-0.08 -0.33 0.25 -0.08c0.16,0 0.33,-0.08 0.49,-0.08zm5.57 0.57c-0.16,0.57 -0.41,1.23 -0.49,1.56 0,-0.08 0,-0.16 0,-0.16l0 -2.13c-0.57,0 -1.31,0.08 -1.96,0.57 0,0 -0.41,0.41 -0.41,0.41 -0.57,0.57 -1.06,1.31 -1.15,2.05l0.08 0 0.25 0c0.08,0 0.08,0 0.08,0 0.16,-0.41 0.33,-0.74 0.57,-0.98 0.25,-0.25 0.57,-0.49 0.9,-0.65 0.25,-0.25 0.57,-0.33 0.74,-0.41 0.25,-0.08 0.33,-0.08 0.33,-0.08 -1.72,0.57 -2.05,1.8 -2.37,2.13 -0.08,0 0,0 0,0l1.39 0 0.41 0 0.49 0c0.16,-0.08 0.25,-0.16 0.41,-0.25 0,-0.08 0.08,-0.08 0.08,-0.08 0.25,-0.41 0.57,-1.39 0.74,-1.96 0,0 0,0 -0.08,0z"/>
      <path class="fil0" d="M54.19 7.18c-0.57,-0.33 -0.82,-1.15 -1.23,-1.88 -0.16,-0.33 -0.25,-0.41 -0.57,-0.57 0.41,0.08 0.74,0.49 0.9,0.82 0.16,0.41 0.25,0.82 0.49,1.15 0,0.16 0.08,0.25 0.25,0.33 0,0.08 0.08,0.08 0.16,0.16z"/>
      <path class="fil0" d="M58.77 7.26c0.57,-0.41 0.82,-1.15 1.23,-1.96 0.16,-0.25 0.25,-0.41 0.57,-0.57 -0.41,0.08 -0.74,0.57 -0.9,0.9 -0.16,0.41 -0.25,0.82 -0.49,1.15 -0.08,0.08 -0.16,0.25 -0.25,0.33 0,0 -0.08,0.08 -0.16,0.16z"/>
     </g>
    </g>
   </g>
  </g>
  <polygon class="fil2" points="-0,0 70.8,0 70.8,7.8 -0,7.8 "/>
 </g>
</svg>
